<mxfile host="app.diagrams.net" agent="Mozilla/5.0 (Windows NT 10.0; Win64; x64) AppleWebKit/537.36 (KHTML, like Gecko) Chrome/129.0.0.0 Safari/537.36" version="24.7.17">
  <diagram id="BDpqkuYBVWf33RYriGRy" name="PÃ¡gina-1">
    <mxGraphModel dx="2336" dy="1915" grid="1" gridSize="10" guides="1" tooltips="1" connect="1" arrows="1" fold="1" page="1" pageScale="1" pageWidth="827" pageHeight="1169" math="0" shadow="0">
      <root>
        <mxCell id="0" />
        <mxCell id="1" parent="0" />
        <mxCell id="WriXKKeUnrRi_fWqlIO9-52" value="" style="rounded=0;whiteSpace=wrap;html=1;fillColor=#fff2cc;strokeColor=#d6b656;" vertex="1" parent="1">
          <mxGeometry x="-580" y="-380.01" width="1395" height="640" as="geometry" />
        </mxCell>
        <mxCell id="WriXKKeUnrRi_fWqlIO9-20" value="" style="rounded=1;whiteSpace=wrap;html=1;fillColor=#dae8fc;strokeColor=#6c8ebf;" vertex="1" parent="1">
          <mxGeometry x="-84.4" y="-300" width="714.4" height="310" as="geometry" />
        </mxCell>
        <mxCell id="WriXKKeUnrRi_fWqlIO9-2" value="" style="shape=image;html=1;verticalAlign=top;verticalLabelPosition=bottom;labelBackgroundColor=#ffffff;imageAspect=0;aspect=fixed;image=https://cdn1.iconfinder.com/data/icons/bootstrap-vol-5/16/type-h2-128.png" vertex="1" parent="1">
          <mxGeometry x="755.75" y="173.1" width="20" height="20" as="geometry" />
        </mxCell>
        <mxCell id="WriXKKeUnrRi_fWqlIO9-5" value="" style="image;points=[];aspect=fixed;html=1;align=center;shadow=0;dashed=0;image=img/lib/allied_telesis/computer_and_terminals/Personal_Computer.svg;" vertex="1" parent="1">
          <mxGeometry x="-327" y="83.1" width="45.6" height="61.800000000000004" as="geometry" />
        </mxCell>
        <mxCell id="WriXKKeUnrRi_fWqlIO9-8" value="" style="aspect=fixed;sketch=0;html=1;dashed=0;whitespace=wrap;verticalLabelPosition=bottom;verticalAlign=top;fillColor=#2875E2;strokeColor=#ffffff;points=[[0.005,0.63,0],[0.1,0.2,0],[0.9,0.2,0],[0.5,0,0],[0.995,0.63,0],[0.72,0.99,0],[0.5,1,0],[0.28,0.99,0]];shape=mxgraph.kubernetes.icon2;kubernetesLabel=1;prIcon=api" vertex="1" parent="1">
          <mxGeometry x="230" y="83.1" width="60.42" height="58" as="geometry" />
        </mxCell>
        <mxCell id="WriXKKeUnrRi_fWqlIO9-9" value="" style="outlineConnect=0;dashed=0;verticalLabelPosition=bottom;verticalAlign=top;align=center;html=1;shape=mxgraph.aws3.generic_database;fillColor=#7D7C7C;gradientColor=none;" vertex="1" parent="1">
          <mxGeometry x="740" y="83.1" width="40" height="54.5" as="geometry" />
        </mxCell>
        <mxCell id="WriXKKeUnrRi_fWqlIO9-10" value="" style="outlineConnect=0;dashed=0;verticalLabelPosition=bottom;verticalAlign=top;align=center;html=1;shape=mxgraph.aws3.db_on_instance;fillColor=#F58534;gradientColor=none;" vertex="1" parent="1">
          <mxGeometry x="545" y="-187.51" width="50" height="55" as="geometry" />
        </mxCell>
        <mxCell id="WriXKKeUnrRi_fWqlIO9-43" style="edgeStyle=orthogonalEdgeStyle;rounded=0;orthogonalLoop=1;jettySize=auto;html=1;" edge="1" parent="1" source="WriXKKeUnrRi_fWqlIO9-14" target="WriXKKeUnrRi_fWqlIO9-41">
          <mxGeometry relative="1" as="geometry" />
        </mxCell>
        <mxCell id="WriXKKeUnrRi_fWqlIO9-44" style="edgeStyle=orthogonalEdgeStyle;rounded=0;orthogonalLoop=1;jettySize=auto;html=1;" edge="1" parent="1" source="WriXKKeUnrRi_fWqlIO9-14" target="WriXKKeUnrRi_fWqlIO9-42">
          <mxGeometry relative="1" as="geometry">
            <Array as="points">
              <mxPoint x="260" y="-160" />
              <mxPoint x="260" y="-260" />
            </Array>
          </mxGeometry>
        </mxCell>
        <mxCell id="WriXKKeUnrRi_fWqlIO9-45" style="edgeStyle=orthogonalEdgeStyle;rounded=0;orthogonalLoop=1;jettySize=auto;html=1;" edge="1" parent="1" source="WriXKKeUnrRi_fWqlIO9-14" target="WriXKKeUnrRi_fWqlIO9-16">
          <mxGeometry relative="1" as="geometry">
            <Array as="points">
              <mxPoint x="260" y="-160" />
              <mxPoint x="260" y="-60" />
            </Array>
          </mxGeometry>
        </mxCell>
        <mxCell id="WriXKKeUnrRi_fWqlIO9-14" value="" style="image;aspect=fixed;html=1;points=[];align=center;fontSize=12;image=img/lib/azure2/ai_machine_learning/Cognitive_Services_Decisions.svg;" vertex="1" parent="1">
          <mxGeometry x="120" y="-188.63" width="57.25" height="57.25" as="geometry" />
        </mxCell>
        <mxCell id="WriXKKeUnrRi_fWqlIO9-15" value="" style="image;aspect=fixed;html=1;points=[];align=center;fontSize=12;image=img/lib/azure2/other/Azure_Center_for_SAP.svg;" vertex="1" parent="1">
          <mxGeometry x="-63" y="-190" width="62.63" height="62.63" as="geometry" />
        </mxCell>
        <mxCell id="WriXKKeUnrRi_fWqlIO9-48" style="edgeStyle=orthogonalEdgeStyle;rounded=0;orthogonalLoop=1;jettySize=auto;html=1;" edge="1" parent="1" source="WriXKKeUnrRi_fWqlIO9-16" target="WriXKKeUnrRi_fWqlIO9-10">
          <mxGeometry relative="1" as="geometry">
            <Array as="points">
              <mxPoint x="480" y="-60" />
              <mxPoint x="480" y="-160" />
            </Array>
          </mxGeometry>
        </mxCell>
        <mxCell id="WriXKKeUnrRi_fWqlIO9-16" value="&lt;b&gt;Validator Password&lt;/b&gt;" style="sketch=0;outlineConnect=0;fontColor=#232F3E;gradientColor=none;strokeColor=#232F3E;fillColor=#ffffff;dashed=0;verticalLabelPosition=bottom;verticalAlign=top;align=center;html=1;fontSize=12;fontStyle=0;aspect=fixed;shape=mxgraph.aws4.resourceIcon;resIcon=mxgraph.aws4.vault;" vertex="1" parent="1">
          <mxGeometry x="346" y="-90.01" width="60" height="60" as="geometry" />
        </mxCell>
        <mxCell id="WriXKKeUnrRi_fWqlIO9-18" style="edgeStyle=orthogonalEdgeStyle;rounded=0;orthogonalLoop=1;jettySize=auto;html=1;" edge="1" parent="1" source="WriXKKeUnrRi_fWqlIO9-17" target="WriXKKeUnrRi_fWqlIO9-5">
          <mxGeometry relative="1" as="geometry" />
        </mxCell>
        <mxCell id="WriXKKeUnrRi_fWqlIO9-17" value="" style="image;aspect=fixed;perimeter=ellipsePerimeter;html=1;align=center;shadow=0;dashed=0;spacingTop=3;image=img/lib/active_directory/user_accounts.svg;" vertex="1" parent="1">
          <mxGeometry x="-513" y="89.75" width="50" height="48.5" as="geometry" />
        </mxCell>
        <mxCell id="WriXKKeUnrRi_fWqlIO9-19" style="edgeStyle=orthogonalEdgeStyle;rounded=0;orthogonalLoop=1;jettySize=auto;html=1;entryX=0.03;entryY=0.529;entryDx=0;entryDy=0;entryPerimeter=0;" edge="1" parent="1" source="WriXKKeUnrRi_fWqlIO9-5" target="WriXKKeUnrRi_fWqlIO9-8">
          <mxGeometry relative="1" as="geometry" />
        </mxCell>
        <mxCell id="WriXKKeUnrRi_fWqlIO9-21" style="edgeStyle=orthogonalEdgeStyle;rounded=0;orthogonalLoop=1;jettySize=auto;html=1;entryX=0.5;entryY=0.015;entryDx=0;entryDy=0;entryPerimeter=0;" edge="1" parent="1" source="WriXKKeUnrRi_fWqlIO9-20" target="WriXKKeUnrRi_fWqlIO9-9">
          <mxGeometry relative="1" as="geometry">
            <Array as="points">
              <mxPoint x="760" y="-60" />
            </Array>
          </mxGeometry>
        </mxCell>
        <mxCell id="WriXKKeUnrRi_fWqlIO9-22" value="Base de Datos" style="text;html=1;align=center;verticalAlign=middle;whiteSpace=wrap;rounded=0;fontStyle=1" vertex="1" parent="1">
          <mxGeometry x="719.75" y="143.1" width="90" height="30" as="geometry" />
        </mxCell>
        <mxCell id="WriXKKeUnrRi_fWqlIO9-23" style="edgeStyle=orthogonalEdgeStyle;rounded=0;orthogonalLoop=1;jettySize=auto;html=1;entryX=0.483;entryY=1.009;entryDx=0;entryDy=0;entryPerimeter=0;" edge="1" parent="1" source="WriXKKeUnrRi_fWqlIO9-8" target="WriXKKeUnrRi_fWqlIO9-20">
          <mxGeometry relative="1" as="geometry" />
        </mxCell>
        <mxCell id="WriXKKeUnrRi_fWqlIO9-24" style="edgeStyle=orthogonalEdgeStyle;rounded=0;orthogonalLoop=1;jettySize=auto;html=1;entryX=0.017;entryY=0.507;entryDx=0;entryDy=0;entryPerimeter=0;" edge="1" parent="1" source="WriXKKeUnrRi_fWqlIO9-15" target="WriXKKeUnrRi_fWqlIO9-14">
          <mxGeometry relative="1" as="geometry" />
        </mxCell>
        <mxCell id="WriXKKeUnrRi_fWqlIO9-27" value="Usuario" style="text;html=1;align=center;verticalAlign=middle;whiteSpace=wrap;rounded=0;fontStyle=1" vertex="1" parent="1">
          <mxGeometry x="-518" y="141.1" width="60" height="30" as="geometry" />
        </mxCell>
        <mxCell id="WriXKKeUnrRi_fWqlIO9-28" value="&lt;div&gt;FrontEnd&lt;/div&gt;" style="text;html=1;align=center;verticalAlign=middle;whiteSpace=wrap;rounded=0;fontStyle=1" vertex="1" parent="1">
          <mxGeometry x="-334.2" y="145" width="60" height="30" as="geometry" />
        </mxCell>
        <mxCell id="WriXKKeUnrRi_fWqlIO9-29" value="Controller" style="text;html=1;align=center;verticalAlign=middle;whiteSpace=wrap;rounded=0;fontStyle=1" vertex="1" parent="1">
          <mxGeometry x="-63" y="-124" width="60" height="30" as="geometry" />
        </mxCell>
        <mxCell id="WriXKKeUnrRi_fWqlIO9-30" value="Service" style="text;html=1;align=center;verticalAlign=middle;whiteSpace=wrap;rounded=0;fontStyle=1" vertex="1" parent="1">
          <mxGeometry x="117.25" y="-127.37" width="60" height="30" as="geometry" />
        </mxCell>
        <mxCell id="WriXKKeUnrRi_fWqlIO9-33" value="Repository" style="text;html=1;align=center;verticalAlign=middle;whiteSpace=wrap;rounded=0;fontStyle=1" vertex="1" parent="1">
          <mxGeometry x="545" y="-120" width="60" height="30" as="geometry" />
        </mxCell>
        <mxCell id="WriXKKeUnrRi_fWqlIO9-36" value="POST / User" style="text;html=1;align=center;verticalAlign=middle;whiteSpace=wrap;rounded=0;fontStyle=1" vertex="1" parent="1">
          <mxGeometry x="-20" y="83" width="90" height="30" as="geometry" />
        </mxCell>
        <mxCell id="WriXKKeUnrRi_fWqlIO9-37" value="llama a" style="text;html=1;align=center;verticalAlign=middle;whiteSpace=wrap;rounded=0;" vertex="1" parent="1">
          <mxGeometry y="-157.37" width="90" height="30" as="geometry" />
        </mxCell>
        <mxCell id="WriXKKeUnrRi_fWqlIO9-38" value="valida" style="text;html=1;align=center;verticalAlign=middle;whiteSpace=wrap;rounded=0;" vertex="1" parent="1">
          <mxGeometry x="170" y="-190" width="90" height="30" as="geometry" />
        </mxCell>
        <mxCell id="WriXKKeUnrRi_fWqlIO9-39" value="comprueba Email" style="text;html=1;align=center;verticalAlign=middle;whiteSpace=wrap;rounded=0;" vertex="1" parent="1">
          <mxGeometry x="470" y="-200" width="90" height="30" as="geometry" />
        </mxCell>
        <mxCell id="WriXKKeUnrRi_fWqlIO9-40" value="Guarda en" style="text;html=1;align=center;verticalAlign=middle;whiteSpace=wrap;rounded=0;" vertex="1" parent="1">
          <mxGeometry x="680" width="90" height="30" as="geometry" />
        </mxCell>
        <mxCell id="WriXKKeUnrRi_fWqlIO9-41" value="&lt;b&gt;Validator format Email&lt;/b&gt;" style="sketch=0;outlineConnect=0;fontColor=#232F3E;gradientColor=none;strokeColor=#232F3E;fillColor=#ffffff;dashed=0;verticalLabelPosition=bottom;verticalAlign=top;align=center;html=1;fontSize=12;fontStyle=0;aspect=fixed;shape=mxgraph.aws4.resourceIcon;resIcon=mxgraph.aws4.vault;" vertex="1" parent="1">
          <mxGeometry x="346" y="-190.01" width="60" height="60" as="geometry" />
        </mxCell>
        <mxCell id="WriXKKeUnrRi_fWqlIO9-42" value="&lt;b&gt;Validator Existing Email&lt;/b&gt;" style="sketch=0;outlineConnect=0;fontColor=#232F3E;gradientColor=none;strokeColor=#232F3E;fillColor=#ffffff;dashed=0;verticalLabelPosition=bottom;verticalAlign=top;align=center;html=1;fontSize=12;fontStyle=0;aspect=fixed;shape=mxgraph.aws4.resourceIcon;resIcon=mxgraph.aws4.vault;" vertex="1" parent="1">
          <mxGeometry x="346" y="-290.01" width="60" height="60" as="geometry" />
        </mxCell>
        <mxCell id="WriXKKeUnrRi_fWqlIO9-46" style="edgeStyle=orthogonalEdgeStyle;rounded=0;orthogonalLoop=1;jettySize=auto;html=1;entryX=0;entryY=0.5;entryDx=0;entryDy=0;entryPerimeter=0;" edge="1" parent="1" source="WriXKKeUnrRi_fWqlIO9-42" target="WriXKKeUnrRi_fWqlIO9-10">
          <mxGeometry relative="1" as="geometry">
            <Array as="points">
              <mxPoint x="480" y="-260" />
              <mxPoint x="480" y="-160" />
            </Array>
          </mxGeometry>
        </mxCell>
        <mxCell id="WriXKKeUnrRi_fWqlIO9-47" style="edgeStyle=orthogonalEdgeStyle;rounded=0;orthogonalLoop=1;jettySize=auto;html=1;entryX=0;entryY=0.5;entryDx=0;entryDy=0;entryPerimeter=0;" edge="1" parent="1" source="WriXKKeUnrRi_fWqlIO9-41" target="WriXKKeUnrRi_fWqlIO9-10">
          <mxGeometry relative="1" as="geometry" />
        </mxCell>
        <mxCell id="WriXKKeUnrRi_fWqlIO9-49" value="DIAGRAMA DE LA SOLUCION" style="text;html=1;align=center;verticalAlign=middle;whiteSpace=wrap;rounded=0;fontStyle=1;fontSize=23;fontColor=#78787d;" vertex="1" parent="1">
          <mxGeometry x="-560" y="-370" width="360" height="30" as="geometry" />
        </mxCell>
      </root>
    </mxGraphModel>
  </diagram>
</mxfile>
